<svg xmlns="http://www.w3.org/2000/svg" viewBox="0 0 512 512" fill="none">
  <rect width="512" height="512" rx="112" fill="#1E4620"/>
  <circle cx="256" cy="256" r="176" stroke="#F7F5F0" stroke-width="14" stroke-dasharray="12 12" opacity="0.35"/>
  <path d="M256 108C192 108 148 164 148 232C148 310 256 404 256 404C256 404 364 310 364 232C364 164 320 108 256 108Z" fill="#F7F5F0"/>
  <path d="M256 156C228 184 212 216 212 248C212 272 231 292 256 292C281 292 300 272 300 248C300 216 284 184 256 156Z" fill="#2E6F40"/>
  <path d="M256 188V316" stroke="#1E4620" stroke-width="16" stroke-linecap="round"/>
  <path d="M256 236L282 214" stroke="#1E4620" stroke-width="12" stroke-linecap="round"/>
  <path d="M256 260L230 238" stroke="#1E4620" stroke-width="12" stroke-linecap="round"/>
</svg>
